<svg xmlns="http://www.w3.org/2000/svg" width="24" height="24" viewBox="0 0 24 24" fill="none" stroke="currentColor" stroke-width="2" stroke-linecap="round" stroke-linejoin="round">
  <!-- Left speech bubble (thesis) -->
  <path d="M3 5h8a2 2 0 0 1 2 2v4a2 2 0 0 1-2 2H7l-3 3v-3a2 2 0 0 1-1-2V7a2 2 0 0 1 2-2z"/>
  <!-- Right speech bubble (antithesis) -->
  <path d="M13 9h8a2 2 0 0 1 2 2v4a2 2 0 0 1-2 2h-1v3l-3-3h-4a2 2 0 0 1-2-2v-4a2 2 0 0 1 2-2z"/>
  <!-- Opposing arrows in center -->
  <path d="M8 8h1"/>
  <path d="M6 10h2"/>
  <path d="M17 12h1"/>
  <path d="M15 14h2"/>
</svg>
